HIERARCHY
ROOT joint_Root
{
	OFFSET 0.0 0.0 0.0
	CHANNELS 6 Xposition Yposition Zposition Zrotation Xrotation Yrotation 
	JOINT Hips
	{
		OFFSET -17.1583 93.1646 452.98
		CHANNELS 6 Xposition Yposition Zposition Zrotation Xrotation Yrotation 
		JOINT Spine
		{
			OFFSET 15.7357 0.0 0.0
			CHANNELS 6 Xposition Yposition Zposition Zrotation Xrotation Yrotation 
			JOINT Chest
			{
				OFFSET 8.98455 -0.406207 0.0
				CHANNELS 6 Xposition Yposition Zposition Zrotation Xrotation Yrotation 
				JOINT Neck
				{
					OFFSET 16.3773 0.0 0.0
					CHANNELS 6 Xposition Yposition Zposition Zrotation Xrotation Yrotation 
					JOINT Head
					{
						OFFSET 6.45672 0.0 0.0
						CHANNELS 6 Xposition Yposition Zposition Zrotation Xrotation Yrotation 
						End Site
						{
							OFFSET 0.0 0.0 0.0
						}
					}
				}
				JOINT Shoulder_L
				{
					OFFSET 12.9942 -0.242716 4.98039
					CHANNELS 6 Xposition Yposition Zposition Zrotation Xrotation Yrotation 
					JOINT UpperArm_L
					{
						OFFSET 5.34809 0.0 0.0
						CHANNELS 6 Xposition Yposition Zposition Zrotation Xrotation Yrotation 
						JOINT LowerArm_L
						{
							OFFSET 24.3286 1.87007e-05 0.0
							CHANNELS 6 Xposition Yposition Zposition Zrotation Xrotation Yrotation 
							JOINT Hand_L
							{
								OFFSET 22.2916 0.0 0.0
								CHANNELS 6 Xposition Yposition Zposition Zrotation Xrotation Yrotation 
								End Site
								{
									OFFSET 0.0 0.0 0.0
								}
							}
						}
					}
				}
				JOINT Shoulder_R
				{
					OFFSET 12.9945 -0.242716 -4.98039
					CHANNELS 6 Xposition Yposition Zposition Zrotation Xrotation Yrotation 
					JOINT UpperArm_R
					{
						OFFSET -5.34813 0.0 0.0
						CHANNELS 6 Xposition Yposition Zposition Zrotation Xrotation Yrotation 
						JOINT LowerArm_R
						{
							OFFSET -24.3289 0.000322201 0.0
							CHANNELS 6 Xposition Yposition Zposition Zrotation Xrotation Yrotation 
							JOINT Hand_R
							{
								OFFSET -22.2915 -0.000108084 0.0
								CHANNELS 6 Xposition Yposition Zposition Zrotation Xrotation Yrotation 
								End Site
								{
									OFFSET 0.0 0.0 0.0
								}
							}
						}
					}
				}
			}
		}
		JOINT UpperLeg_L
		{
			OFFSET -2.19248 -6.46944 0.0
			CHANNELS 6 Xposition Yposition Zposition Zrotation Xrotation Yrotation 
			JOINT LowerLeg_L
			{
				OFFSET 39.0811 0.0 -1.23785e-05
				CHANNELS 6 Xposition Yposition Zposition Zrotation Xrotation Yrotation 
				JOINT Foot_L
				{
					OFFSET 40.9854 0.0 -1.26872e-05
					CHANNELS 6 Xposition Yposition Zposition Zrotation Xrotation Yrotation 
					JOINT Toes_L
					{
						OFFSET 11.7543 0.0 0.0
						CHANNELS 6 Xposition Yposition Zposition Zrotation Xrotation Yrotation 
						End Site
						{
							OFFSET 0.0 0.0 0.0
						}
					}
				}
			}
		}
		JOINT UpperLeg_R
		{
			OFFSET -2.19251 6.46944 0.0
			CHANNELS 6 Xposition Yposition Zposition Zrotation Xrotation Yrotation 
			JOINT LowerLeg_R
			{
				OFFSET -39.0811 -0.00228153 -0.0401928
				CHANNELS 6 Xposition Yposition Zposition Zrotation Xrotation Yrotation 
				JOINT Foot_R
				{
					OFFSET -40.9854 0.0 0.0
					CHANNELS 6 Xposition Yposition Zposition Zrotation Xrotation Yrotation 
					JOINT Toes_R
					{
						OFFSET -11.7543 0.0 0.0
						CHANNELS 6 Xposition Yposition Zposition Zrotation Xrotation Yrotation 
						End Site
						{
							OFFSET 0.0 0.0 0.0
						}
					}
				}
			}
		}
	}
}
MOTION
Frames:	8
Frame Time:	0.0333333
0.000000 0.000000 0.000000 0.000000 0.000000 -0.000000 2.432390 92.711000 -0.136741 88.399000 -3.439870 5.836060 15.735700 0.000005 -0.000001 110.169000 86.567600 -109.461000 8.984550 -0.406207 -0.000000 -1.336170 2.310250 1.441330 16.377300 -0.000001 -0.000001 1.730480 1.780900 -0.730790 6.456720 -0.000001 -0.000000 7.434390 1.703870 4.699350 12.994200 -0.242716 4.980390 -92.518600 7.909450 -72.273700 5.348090 -0.000007 -0.000001 -72.077400 27.562200 0.122163 24.328600 0.000019 0.000005 10.381800 26.037700 -22.653700 22.291600 -0.000001 0.000005 -11.269400 5.115250 4.761040 12.994500 -0.242716 -4.980390 88.562800 5.196640 -74.517200 -5.348130 -0.000001 -0.000004 -72.701100 27.962400 -1.776650 -24.328900 0.000322 -0.000009 1.399630 5.458850 -14.414600 -22.291500 -0.000108 -0.000004 0.842897 5.266090 1.003600 -2.192480 -6.469440 -0.000000 -176.140000 -6.521030 2.474520 39.081100 -0.000007 -0.000012 0.083272 -0.235698 19.458300 40.985400 -0.000006 -0.000013 1.555190 8.738870 -70.046200 11.754300 -0.000000 0.000003 -0.000507 0.175768 -9.447280 -2.192510 6.469440 -0.000001 174.569000 2.935780 -175.904000 -39.081100 -0.002282 -0.040193 0.011710 -0.032412 14.494400 -40.985400 0.000008 0.000006 -7.924520 7.424110 -67.788100 -11.754300 -0.000006 -0.000006 -0.010949 0.278263 -5.266290
0.000000 0.000000 0.000000 0.000000 0.000000 -0.000000 2.404660 92.729900 -0.206535 88.421400 -3.590720 5.674490 15.735700 0.000005 -0.000001 111.644000 86.515100 -110.880000 8.984550 -0.406207 -0.000000 -1.304150 2.509740 1.555210 16.377300 -0.000001 -0.000001 1.379310 1.547540 -0.088188 6.456720 -0.000001 -0.000000 6.816590 1.605760 5.245090 12.994200 -0.242716 4.980390 -92.641900 8.212420 -72.097800 5.348090 -0.000007 -0.000001 -70.744500 27.251700 -0.213335 24.328600 0.000019 0.000005 10.418900 25.677900 -22.993700 22.291600 -0.000001 0.000005 -12.295000 5.159260 3.717170 12.994500 -0.242716 -4.980390 88.541100 5.308490 -74.609200 -5.348130 -0.000001 -0.000004 -72.601600 27.692300 -1.709250 -24.328900 0.000322 -0.000009 1.343000 5.236300 -14.417500 -22.291500 -0.000108 -0.000004 0.896493 5.267910 0.954790 -2.192480 -6.469440 -0.000000 -176.157000 -6.599900 2.344050 39.081100 -0.000007 -0.000012 0.081625 -0.232535 19.342400 40.985400 -0.000006 -0.000013 1.501360 8.662150 -70.001000 11.754300 -0.000000 0.000003 -0.000530 0.176121 -9.432920 -2.192510 6.469440 -0.000001 174.597000 2.744760 -176.129000 -39.081100 -0.002282 -0.040193 0.012389 -0.035121 14.460700 -40.985400 0.000008 0.000006 -7.965190 7.388230 -67.738700 -11.754300 -0.000006 -0.000006 -0.010885 0.277800 -5.285250
0.000000 0.000000 0.000000 0.000000 0.000000 -0.000000 2.369120 92.753100 -0.266306 88.426700 -3.723900 5.401750 15.735700 0.000005 -0.000001 113.292000 86.479400 -112.439000 8.984550 -0.406207 -0.000000 -1.318620 2.715940 1.737160 16.377300 -0.000001 -0.000001 1.013510 1.320540 0.647472 6.456720 -0.000001 -0.000000 6.000750 1.426550 6.406290 12.994200 -0.242716 4.980390 -92.744400 8.453450 -71.940100 5.348090 -0.000007 -0.000001 -68.885200 26.121500 -1.158400 24.328600 0.000019 0.000005 10.472900 26.469400 -22.524900 22.291600 -0.000001 0.000005 -13.835100 5.221960 2.157470 12.994500 -0.242716 -4.980390 88.518600 5.436650 -74.732500 -5.348130 -0.000001 -0.000004 -72.403100 27.151700 -1.593460 -24.328900 0.000322 -0.000009 1.291720 4.991200 -14.541000 -22.291500 -0.000108 -0.000004 0.904381 5.267050 0.977688 -2.192480 -6.469440 -0.000000 -176.168000 -6.704410 2.117540 39.081100 -0.000007 -0.000012 0.081166 -0.232914 19.212400 40.985400 -0.000006 -0.000013 1.456220 8.624970 -69.990500 11.754300 -0.000000 0.000003 -0.000495 0.175576 -9.455080 -2.192510 6.469440 -0.000001 174.612000 2.775250 -176.429000 -39.081100 -0.002282 -0.040193 0.012319 -0.035068 14.375300 -40.985400 0.000008 0.000006 -8.069630 7.521970 -67.590400 -11.754300 -0.000006 -0.000006 -0.010712 0.276548 -5.336490
0.000000 0.000000 0.000000 0.000000 0.000000 -0.000000 2.333020 92.790700 -0.353770 88.382900 -3.913690 4.973940 15.735700 0.000005 -0.000001 115.422000 86.486900 -114.423000 8.984550 -0.406207 -0.000000 -1.445440 2.935250 2.034470 16.377300 -0.000001 -0.000001 0.693659 1.052800 1.554630 6.456720 -0.000001 -0.000000 4.919280 1.293040 8.199620 12.994200 -0.242716 4.980390 -92.813300 8.550680 -71.711100 5.348090 -0.000007 -0.000001 -66.487100 23.834900 -2.631420 24.328600 0.000019 0.000005 10.462600 28.263800 -21.304500 22.291600 -0.000001 0.000005 -15.691500 5.272360 0.833472 12.994500 -0.242716 -4.980390 88.459600 5.653050 -74.730400 -5.348130 -0.000001 -0.000004 -71.913300 26.698600 -1.496270 -24.328900 0.000322 -0.000009 1.252560 4.738460 -14.837100 -22.291500 -0.000108 -0.000004 0.997112 5.269160 0.921040 -2.192480 -6.469440 -0.000000 -176.154000 -6.781150 1.747730 39.081100 -0.000007 -0.000012 0.080043 -0.232049 19.031500 40.985400 -0.000006 -0.000013 1.385130 8.515080 -69.939800 11.754300 -0.000000 0.000003 -0.000621 0.177489 -9.377340 -2.192510 6.469440 -0.000001 174.672000 2.754460 -176.856000 -39.081100 -0.002282 -0.040193 0.011024 -0.030504 14.153700 -40.985400 0.000008 0.000006 -8.378820 7.687460 -67.333000 -11.754300 -0.000006 -0.000006 -0.011267 0.280542 -5.173000
0.000000 0.000000 0.000000 0.000000 0.000000 -0.000000 2.289860 92.832500 -0.431438 88.386200 -4.138650 4.377150 15.735700 0.000005 -0.000001 116.611000 86.551900 -115.408000 8.984550 -0.406207 -0.000000 -1.631210 2.989670 2.449270 16.377300 -0.000001 -0.000001 0.289340 0.884303 2.479860 6.456720 -0.000001 -0.000000 3.754630 1.359650 10.474700 12.994200 -0.242716 4.980390 -92.801200 8.403370 -71.489400 5.348090 -0.000007 -0.000001 -63.762700 20.094400 -4.425830 24.328600 0.000019 0.000005 9.929760 30.068600 -19.259600 22.291600 -0.000001 0.000005 -17.168700 5.280120 0.623990 12.994500 -0.242716 -4.980390 88.404800 5.865500 -74.756400 -5.348130 -0.000001 -0.000004 -71.136200 26.291900 -1.735640 -24.328900 0.000322 -0.000009 1.261870 4.744520 -14.924200 -22.291500 -0.000108 -0.000004 1.105930 5.272320 0.835479 -2.192480 -6.469440 -0.000000 -176.198000 -6.912910 1.252950 39.081100 -0.000007 -0.000012 0.077296 -0.227530 18.763600 40.985400 -0.000006 -0.000013 1.307900 8.420130 -69.841200 11.754300 -0.000000 0.000003 -0.000516 0.175902 -9.441850 -2.192510 6.469440 -0.000001 174.712000 2.716850 -177.427000 -39.081100 -0.002282 -0.040193 0.011427 -0.032735 13.889100 -40.985400 0.000008 0.000006 -8.530080 7.812540 -67.048900 -11.754300 -0.000006 -0.000006 -0.010930 0.278130 -5.271730
0.000000 0.000000 0.000000 0.000000 0.000000 -0.000000 2.232850 92.881300 -0.479311 88.392300 -4.206670 3.878330 15.735700 0.000005 -0.000001 115.956000 86.635600 -114.454000 8.984550 -0.406207 -0.000000 -1.751770 2.819650 3.047970 16.377300 -0.000001 -0.000001 -0.237312 0.673619 3.339850 6.456720 -0.000001 -0.000000 2.820450 1.421150 12.825100 12.994200 -0.242716 4.980390 -92.670000 7.945270 -71.357400 5.348090 -0.000007 -0.000001 -60.510400 15.501300 -6.575870 24.328600 0.000019 0.000005 9.189750 32.807800 -16.625900 22.291600 -0.000001 0.000005 -18.409900 5.289050 0.376609 12.994500 -0.242716 -4.980390 88.376600 5.951650 -74.712800 -5.348130 -0.000001 -0.000004 -70.322100 25.492900 -2.158090 -24.328900 0.000322 -0.000009 1.306020 4.958890 -14.786200 -22.291500 -0.000108 -0.000004 1.226560 5.273170 0.812265 -2.192480 -6.469440 -0.000000 -176.195000 -7.069850 0.910380 39.081100 -0.000007 -0.000012 0.073251 -0.219981 18.417200 40.985400 -0.000006 -0.000013 1.245730 8.533470 -69.784900 11.754300 -0.000000 0.000003 -0.000623 0.177523 -9.375990 -2.192510 6.469440 -0.000001 174.763000 2.783920 -177.817000 -39.081100 -0.002282 -0.040193 0.011244 -0.032820 13.552600 -40.985400 0.000008 0.000006 -8.640080 7.857330 -66.837500 -11.754300 -0.000006 -0.000006 -0.010895 0.277876 -5.282150
0.000000 0.000000 0.000000 0.000000 0.000000 -0.000000 2.150960 92.916400 -0.526717 88.470300 -4.052980 3.334450 15.735700 0.000005 -0.000001 114.565000 86.771400 -112.711000 8.984550 -0.406207 -0.000000 -1.932010 2.526970 3.749900 16.377300 -0.000001 -0.000001 -0.773357 0.443198 4.139690 6.456720 -0.000001 -0.000000 2.077690 1.445490 14.896000 12.994200 -0.242716 4.980390 -92.415200 7.155660 -71.293500 5.348090 -0.000007 -0.000001 -56.724600 9.605840 -9.460760 24.328600 0.000019 0.000005 7.421380 36.209600 -12.436000 22.291600 -0.000001 0.000005 -19.033500 5.298720 0.108502 12.994500 -0.242716 -4.980390 88.362400 5.955660 -74.595500 -5.348130 -0.000001 -0.000004 -69.574900 24.138100 -2.454410 -24.328900 0.000322 -0.000009 1.339830 5.133860 -14.659100 -22.291500 -0.000108 -0.000004 1.567960 5.273460 0.804389 -2.192480 -6.469440 -0.000000 -176.254000 -7.256410 0.454108 39.081100 -0.000007 -0.000012 0.069516 -0.212328 18.128400 40.985400 -0.000006 -0.000013 1.210900 8.814690 -69.689900 11.754300 -0.000000 0.000003 -0.000566 0.176660 -9.411030 -2.192510 6.469440 -0.000001 174.802000 2.782990 -178.305000 -39.081100 -0.002282 -0.040193 0.013965 -0.044567 13.417600 -40.985400 0.000008 0.000006 -8.521900 7.650060 -66.877300 -11.754300 -0.000006 -0.000006 -0.011346 0.281104 -5.149990
0.000000 0.000000 0.000000 0.000000 0.000000 -0.000000 2.043040 92.943500 -0.507372 88.596400 -3.838230 2.911040 15.735700 0.000005 -0.000001 112.905000 86.892400 -110.640000 8.984550 -0.406207 -0.000000 -2.081380 2.223740 4.570460 16.377300 -0.000001 -0.000001 -1.295230 0.200042 4.728300 6.456720 -0.000001 -0.000000 1.720650 1.446490 16.348000 12.994200 -0.242716 4.980390 -92.085600 6.112180 -71.117800 5.348090 -0.000007 -0.000001 -52.517400 1.965660 -13.223300 24.328600 0.000019 0.000005 4.421570 40.306000 -6.818160 22.291600 -0.000001 0.000005 -18.837700 5.270690 0.877147 12.994500 -0.242716 -4.980390 88.381600 5.857620 -74.525100 -5.348130 -0.000001 -0.000004 -68.896600 22.472900 -2.583390 -24.328900 0.000322 -0.000009 1.405180 5.446990 -14.499400 -22.291500 -0.000108 -0.000004 1.881420 5.275690 0.743801 -2.192480 -6.469440 -0.000000 -176.268000 -7.677800 0.205791 39.081100 -0.000007 -0.000012 0.063865 -0.199175 17.778400 40.985400 -0.000006 -0.000013 1.206970 9.456550 -69.642400 11.754300 -0.000000 0.000003 -0.000521 0.175983 -9.438530 -2.192510 6.469440 -0.000001 174.846000 2.716400 -178.639000 -39.081100 -0.002282 -0.040193 0.017531 -0.059867 13.341200 -40.985400 0.000008 0.000006 -8.135770 7.259730 -67.038600 -11.754300 -0.000006 -0.000006 -0.011009 0.278693 -5.248710
